<?xml version="1.0" standalone="no"?>
<!DOCTYPE svg PUBLIC "-//W3C//DTD SVG 20010904//EN"
 "http://www.w3.org/TR/2001/REC-SVG-20010904/DTD/svg10.dtd">
<svg version="1.0" xmlns="http://www.w3.org/2000/svg"
 width="360.000000pt" height="356.000000pt" viewBox="0 0 360.000000 356.000000"
 preserveAspectRatio="xMidYMid meet">

<g transform="translate(0.000000,356.000000) scale(0.100000,-0.100000)"
fill="#ff0000" stroke="none">
<path d="M1655 3550 c-327 -38 -614 -135 -843 -283 -168 -109 -389 -312 -497
-459 -106 -143 -207 -349 -259 -530 -42 -144 -72 -398 -47 -398 4 0 14 35 21
78 7 42 16 80 19 84 3 4 5 -43 4 -105 l-1 -112 14 90 c8 50 24 137 36 195 11
58 22 122 24 142 6 74 168 428 196 428 4 0 -16 -48 -46 -107 -30 -60 -59 -124
-65 -143 -5 -19 -26 -82 -46 -140 -42 -124 -73 -285 -79 -419 -4 -74 -3 -86 4
-51 43 213 80 374 90 384 9 8 10 4 5 -16 -5 -18 -3 -28 4 -28 6 0 11 7 11 15
0 8 4 15 10 15 5 0 10 -28 12 -62 l3 -63 19 53 c56 163 220 421 399 630 90
105 139 142 67 51 -40 -51 -47 -75 -13 -48 10 8 59 48 109 90 241 202 482 322
751 376 125 25 414 25 538 0 469 -95 846 -377 1058 -794 218 -428 217 -916 -3
-1354 -190 -378 -550 -674 -951 -783 -257 -70 -565 -77 -809 -19 -14 3 -22 3
-19 -1 3 -4 53 -16 110 -28 143 -30 447 -32 594 -4 345 64 671 246 898 501 37
42 67 73 67 70 0 -20 -66 -102 -139 -175 -228 -225 -486 -358 -806 -416 -75
-13 -156 -18 -323 -18 -159 -1 -212 -4 -185 -10 21 -5 120 -10 220 -10 100 -1
176 -4 169 -8 -26 -14 -253 -20 -366 -9 -454 43 -901 321 -1163 721 -52 81
-67 100 -47 60 30 -58 137 -205 196 -269 71 -77 87 -107 23 -46 -93 91 -195
236 -280 398 -32 62 -59 110 -59 107 0 -12 29 -80 57 -136 73 -141 175 -278
302 -404 285 -284 585 -432 985 -485 27 -4 58 -11 70 -16 32 -14 -103 0 -217
22 -332 66 -591 206 -855 462 -57 54 -106 96 -109 93 -4 -3 -18 4 -32 16 l-26
23 24 -27 c13 -15 27 -25 31 -23 5 3 11 -6 14 -19 12 -50 264 -264 431 -366
408 -251 926 -308 1400 -154 193 63 439 204 608 348 79 68 107 78 40 15 -65
-61 -135 -114 -229 -175 -130 -84 -133 -86 -94 -68 19 9 69 40 110 67 364 244
621 606 730 1030 37 145 48 225 59 432 14 263 -16 419 -136 720 -128 320 -329
576 -591 754 -121 82 -395 204 -574 255 -169 49 -462 75 -623 56z m-475 -132
c-289 -126 -467 -243 -644 -422 -101 -103 -118 -104 -25 -2 66 72 182 169 288
239 84 57 271 157 339 182 44 16 78 18 42 3z m-225 -157 c-6 -4 -59 -41 -120
-82 -71 -48 -157 -120 -244 -204 -146 -141 -166 -146 -30 -8 130 132 341 292
399 302 2 1 0 -3 -5 -8z m-225 -2728 c34 -35 44 -48 25 -35 -38 26 -102 92
-89 92 5 0 34 -25 64 -57z"/>
<path d="M3593 1755 c0 -33 2 -45 4 -27 2 18 2 45 0 60 -2 15 -4 0 -4 -33z"/>
<path d="M46 1595 c15 -188 78 -414 169 -600 240 -490 692 -838 1240 -955 81
-18 141 -22 315 -25 l215 -3 -205 8 c-229 8 -342 27 -520 86 -527 176 -938
582 -1119 1109 -36 104 -57 194 -90 390 l-10 60 5 -70z"/>
<path d="M3582 1590 c0 -14 2 -19 5 -12 2 6 2 18 0 25 -3 6 -5 1 -5 -13z"/>
<path d="M3572 1500 c0 -14 2 -19 5 -12 2 6 2 18 0 25 -3 6 -5 1 -5 -13z"/>
<path d="M3562 1440 c0 -14 2 -19 5 -12 2 6 2 18 0 25 -3 6 -5 1 -5 -13z"/>
<path d="M3551 1384 c0 -11 3 -14 6 -6 3 7 2 16 -1 19 -3 4 -6 -2 -5 -13z"/>
<path d="M3541 1344 c0 -11 3 -14 6 -6 3 7 2 16 -1 19 -3 4 -6 -2 -5 -13z"/>
<path d="M360 1011 c0 -6 4 -13 10 -16 6 -3 7 1 4 9 -7 18 -14 21 -14 7z"/>
<path d="M450 766 c0 -2 8 -10 18 -17 15 -13 16 -12 3 4 -13 16 -21 21 -21 13z"/>
<path d="M430 736 c0 -2 8 -10 18 -17 15 -13 16 -12 3 4 -13 16 -21 21 -21 13z"/>
<path d="M495 710 c10 -11 20 -20 23 -20 3 0 -3 9 -13 20 -10 11 -20 20 -23
20 -3 0 3 -9 13 -20z"/>
<path d="M675 640 c10 -11 20 -20 23 -20 3 0 -3 9 -13 20 -10 11 -20 20 -23
20 -3 0 3 -9 13 -20z"/>
<path d="M765 560 c10 -11 20 -20 23 -20 3 0 -3 9 -13 20 -10 11 -20 20 -23
20 -3 0 3 -9 13 -20z"/>
<path d="M810 526 c0 -2 8 -10 18 -17 15 -13 16 -12 3 4 -13 16 -21 21 -21 13z"/>
<path d="M850 495 c0 -5 106 -77 140 -95 14 -7 23 -10 20 -7 -10 11 -160 107
-160 102z"/>
<path d="M1020 385 c0 -7 141 -77 146 -73 2 2 -30 21 -71 41 -41 20 -75 35
-75 32z"/>
<path d="M1240 280 c8 -5 20 -10 25 -10 6 0 3 5 -5 10 -8 5 -19 10 -25 10 -5
0 -3 -5 5 -10z"/>
<path d="M1315 280 c11 -5 27 -9 35 -9 9 0 8 4 -5 9 -11 5 -27 9 -35 9 -9 0
-8 -4 5 -9z"/>
<path d="M1348 243 c7 -3 16 -2 19 1 4 3 -2 6 -13 5 -11 0 -14 -3 -6 -6z"/>
<path d="M1418 223 c7 -3 16 -2 19 1 4 3 -2 6 -13 5 -11 0 -14 -3 -6 -6z"/>
<path d="M1468 213 c7 -3 16 -2 19 1 4 3 -2 6 -13 5 -11 0 -14 -3 -6 -6z"/>
<path d="M2610 205 c-14 -8 -20 -14 -14 -15 5 0 19 7 30 15 24 18 16 19 -16 0z"/>
<path d="M1508 203 c6 -2 18 -2 25 0 6 3 1 5 -13 5 -14 0 -19 -2 -12 -5z"/>
<path d="M2560 180 c-9 -6 -10 -10 -3 -10 6 0 15 5 18 10 8 12 4 12 -15 0z"/>
<path d="M2500 155 c-14 -8 -20 -14 -15 -14 6 0 21 6 35 14 14 8 21 14 15 14
-5 0 -21 -6 -35 -14z"/>
<path d="M2425 125 c-25 -12 -26 -14 -5 -9 28 7 60 23 45 23 -5 0 -23 -6 -40
-14z"/>
<path d="M2285 80 c-13 -5 -14 -9 -5 -9 8 0 24 4 35 9 13 5 14 9 5 9 -8 0 -24
-4 -35 -9z"/>
<path d="M2191 59 c-18 -6 -72 -17 -120 -24 -79 -14 -81 -14 -21 -10 64 5 234
43 195 43 -11 0 -35 -4 -54 -9z"/>
</g>
</svg>
